{
  "accessors": [
    {
      "bufferView": 2,
      "componentType": 5126,
      "count": 58195,
      "max": [
        0.9714441895484924,
        1.1251803636550903,
        0.4405687749385834
      ],
      "min": [
        -0.9715989828109741,
        -1.5356779098510742,
        -0.7322534918785095
      ],
      "type": "VEC3"
    },
    {
      "bufferView": 2,
      "byteOffset": 698340,
      "componentType": 5126,
      "count": 58195,
      "max": [
        0.9999995231628418,
        1.0,
        0.9999986886978149
      ],
      "min": [
        -0.9999995231628418,
        -0.9998536109924316,
        -0.9999409914016724
      ],
      "type": "VEC3"
    },
    {
      "bufferView": 1,
      "componentType": 5126,
      "count": 58195,
      "max": [
        1.0641895532608032,
        1.0000001192092896
      ],
      "min": [
        -0.07271910458803177,
        0.0
      ],
      "type": "VEC2"
    },
    {
      "bufferView": 0,
      "componentType": 5125,
      "count": 279600,
      "type": "SCALAR"
    }
  ],
  "asset": {
    "extras": {
      "author": "jomalon (https://sketchfab.com/estebancandiani)",
      "license": "CC-BY-4.0 (http://creativecommons.org/licenses/by/4.0/)",
      "source": "https://sketchfab.com/3d-models/baseball-cap-75d11d363e1c4884a714a776049ea4a0",
      "title": "Baseball Cap"
    },
    "generator": "Sketchfab-15.55.0",
    "version": "2.0"
  },
  "bufferViews": [
    {
      "buffer": 0,
      "byteLength": 1118400,
      "name": "floatBufferViews",
      "target": 34963
    },
    {
      "buffer": 0,
      "byteLength": 465560,
      "byteOffset": 1118400,
      "byteStride": 8,
      "name": "floatBufferViews",
      "target": 34962
    },
    {
      "buffer": 0,
      "byteLength": 1396680,
      "byteOffset": 1583960,
      "byteStride": 12,
      "name": "floatBufferViews",
      "target": 34962
    }
  ],
  "buffers": [
    {
      "byteLength": 2980640,
      "uri": "scene.bin"
    }
  ],
  "materials": [
    {
      "doubleSided": true,
      "name": "Scene_-_Root",
      "pbrMetallicRoughness": {
        "metallicFactor": 0.0,
        "roughnessFactor": 0.6
      }
    }
  ],
  "meshes": [
    {
      "name": "gorra.002__0",
      "primitives": [
        {
          "attributes": {
            "NORMAL": 1,
            "POSITION": 0,
            "TEXCOORD_0": 2
          },
          "indices": 3,
          "material": 0,
          "mode": 4
        }
      ]
    }
  ],
  "nodes": [
    {
      "children": [
        1
      ],
      "matrix": [
        0.001055329106748104,
        0.0,
        0.0,
        0.0,
        0.0,
        2.3433013457376897e-19,
        -0.001055329106748104,
        0.0,
        0.0,
        0.001055329106748104,
        2.3433013457376897e-19,
        0.0,
        0.0,
        0.0,
        0.0,
        1.0
      ],
      "name": "Sketchfab_model"
    },
    {
      "children": [
        2
      ],
      "matrix": [
        1.0,
        0.0,
        0.0,
        0.0,
        0.0,
        0.0,
        1.0,
        0.0,
        0.0,
        -1.0,
        0.0,
        0.0,
        0.0,
        0.0,
        0.0,
        1.0
      ],
      "name": "8b9c5156b1a6402f81c3e1c47b097b04.fbx"
    },
    {
      "children": [
        3
      ],
      "name": "Object_2"
    },
    {
      "children": [
        4
      ],
      "name": "RootNode"
    },
    {
      "children": [
        5
      ],
      "name": "gorra.002",
      "rotation": [
        -0.7071068286895752,
        0.0,
        0.0,
        0.7071067094802856
      ],
      "scale": [
        195.25164794921875,
        195.25164794921875,
        222.44155883789063
      ],
      "translation": [
        0.190921351313591,
        193.37046813964844,
        6.366758823394775
      ]
    },
    {
      "mesh": 0,
      "name": "gorra.002__0"
    }
  ],
  "scene": 0,
  "scenes": [
    {
      "name": "Sketchfab_Scene",
      "nodes": [
        0
      ]
    }
  ]
}
